<svg xmlns="http://www.w3.org/2000/svg" version="1.1" xmlns:xlink="http://www.w3.org/1999/xlink" viewBox="0 0 200 200"><rect width="200" height="200" fill="url('#gradient')"></rect><defs><linearGradient id="gradient" gradientTransform="rotate(0 0.5 0.5)"><stop offset="0%" stop-color="#445272"></stop><stop offset="100%" stop-color="#8fa983"></stop></linearGradient></defs><g><g fill="#cccadc" transform="matrix(5.097909060736807,0,0,5.097909060736807,23.942204435788398,136.24550896896858)" stroke="#191c6c" stroke-width="0.4"><path d="M10.11-14.22L12.09-5.30L13.72-14.22L17.12-14.22L14.10 0L10.55 0L8.64-8.11L6.78 0L3.23 0L0.21-14.22L3.61-14.22L5.24-5.30L7.20-14.22L10.11-14.22ZM23.13 0L18.46 0L18.46-14.22L23.04-14.22Q24.92-14.22 26.43-13.36Q27.93-12.51 28.77-10.95Q29.62-9.39 29.63-7.46L29.63-7.46L29.63-6.81Q29.63-4.85 28.80-3.31Q27.98-1.76 26.48-0.88Q24.98-0.01 23.13 0L23.13 0ZM23.04-11.57L21.88-11.57L21.88-2.64L23.08-2.64Q24.55-2.64 25.34-3.69Q26.13-4.74 26.13-6.81L26.13-6.81L26.13-7.42Q26.13-9.48 25.34-10.53Q24.55-11.57 23.04-11.57L23.04-11.57Z"></path></g></g></svg>